<svg width="33" height="35" viewBox="0 0 33 35" fill="none" xmlns="http://www.w3.org/2000/svg">
<path d="M10.8963 28.3314V32.72M4.22407 2H17.5685C18.1584 2 18.7241 2.23118 19.1412 2.64269C19.5583 3.0542 19.7926 3.61232 19.7926 4.19429V32.4457C19.7926 32.5185 19.7633 32.5882 19.7112 32.6397C19.659 32.6911 19.5883 32.72 19.5146 32.72H2V4.19429C2 3.61232 2.23432 3.0542 2.65142 2.64269C3.06851 2.23118 3.63421 2 4.22407 2ZM20.9046 12.9714H28.6889C29.2787 12.9714 29.8444 13.2026 30.2615 13.6141C30.6786 14.0256 30.9129 14.5838 30.9129 15.1657V32.72H19.7926V14.0686C19.7926 13.7776 19.9097 13.4985 20.1183 13.2928C20.3268 13.087 20.6097 12.9714 20.9046 12.9714Z" stroke="white" stroke-width="3" stroke-linecap="round" stroke-linejoin="round"/>
<path d="M5.65695 29.6989C5.42824 29.7285 5.1959 29.6864 4.99255 29.5785C4.78919 29.4705 4.62503 29.3021 4.5231 29.0969C4.42117 28.8917 4.38659 28.66 4.42421 28.4343C4.46183 28.2086 4.56977 28.0003 4.73287 27.8385C4.89597 27.6768 5.10605 27.5697 5.33362 27.5324C5.56119 27.4951 5.79483 27.5294 6.00174 27.6305C6.20866 27.7316 6.37846 27.8944 6.48732 28.0961C6.59618 28.2977 6.63864 28.5281 6.60873 28.755C6.57716 28.9943 6.46673 29.2167 6.29461 29.3874C6.12248 29.5581 5.89831 29.6676 5.65695 29.6989ZM5.65695 24.2229C5.42824 24.2526 5.1959 24.2105 4.99255 24.1025C4.78919 23.9946 4.62503 23.8262 4.5231 23.621C4.42117 23.4158 4.38659 23.1841 4.42421 22.9584C4.46183 22.7327 4.56977 22.5243 4.73287 22.3626C4.89597 22.2008 5.10605 22.0938 5.33362 22.0565C5.56119 22.0192 5.79483 22.0535 6.00174 22.1546C6.20866 22.2556 6.37846 22.4184 6.48732 22.6201C6.59618 22.8218 6.63864 23.0522 6.60873 23.279C6.57716 23.5184 6.46673 23.7407 6.29461 23.9114C6.12248 24.0821 5.89831 24.1916 5.65695 24.2229ZM5.65695 18.747C5.42824 18.7767 5.1959 18.7346 4.99255 18.6266C4.78919 18.5186 4.62503 18.3502 4.5231 18.145C4.42117 17.9398 4.38659 17.7081 4.42421 17.4824C4.46183 17.2568 4.56977 17.0484 4.73287 16.8867C4.89597 16.7249 5.10605 16.6179 5.33362 16.5806C5.56119 16.5432 5.79483 16.5775 6.00174 16.6786C6.20866 16.7797 6.37846 16.9425 6.48732 17.1442C6.59618 17.3459 6.63864 17.5763 6.60873 17.8031C6.57716 18.0425 6.46673 18.2648 6.29461 18.4355C6.12248 18.6062 5.89831 18.7157 5.65695 18.747ZM5.65695 13.2711C5.42824 13.3007 5.1959 13.2586 4.99255 13.1507C4.78919 13.0427 4.62503 12.8743 4.5231 12.6691C4.42117 12.4639 4.38659 12.2322 4.42421 12.0065C4.46183 11.7808 4.56977 11.5725 4.73287 11.4107C4.89597 11.249 5.10605 11.1419 5.33362 11.1046C5.56119 11.0673 5.79483 11.1016 6.00174 11.2027C6.20866 11.3038 6.37846 11.4666 6.48732 11.6683C6.59618 11.8699 6.63864 12.1003 6.60873 12.3272C6.57716 12.5665 6.46673 12.7889 6.29461 12.9596C6.12248 13.1303 5.89831 13.2398 5.65695 13.2711ZM5.65695 7.79514C5.42824 7.82481 5.1959 7.7827 4.99255 7.67474C4.78919 7.56678 4.62503 7.39838 4.5231 7.19317C4.42117 6.98797 4.38659 6.75626 4.42421 6.53057C4.46183 6.30488 4.56977 6.09654 4.73287 5.93479C4.89597 5.77304 5.10605 5.66599 5.33362 5.62868C5.56119 5.59137 5.79483 5.62567 6.00174 5.72675C6.20866 5.82784 6.37846 5.99064 6.48732 6.19232C6.59618 6.39399 6.63864 6.62441 6.60873 6.85123C6.57716 7.0906 6.46673 7.31291 6.29461 7.48362C6.12248 7.65432 5.89831 7.76384 5.65695 7.79514ZM11.1785 24.2229C10.9498 24.2526 10.7175 24.2105 10.5141 24.1025C10.3108 23.9946 10.1466 23.8262 10.0447 23.621C9.94274 23.4158 9.90816 23.1841 9.94578 22.9584C9.9834 22.7327 10.0913 22.5243 10.2544 22.3626C10.4175 22.2008 10.6276 22.0938 10.8552 22.0565C11.0828 22.0192 11.3164 22.0535 11.5233 22.1546C11.7302 22.2556 11.9 22.4184 12.0089 22.6201C12.1178 22.8218 12.1602 23.0522 12.1303 23.279C12.0987 23.5184 11.9883 23.7407 11.8162 23.9114C11.6441 24.0821 11.4199 24.1916 11.1785 24.2229ZM11.1785 18.747C10.9498 18.7767 10.7175 18.7346 10.5141 18.6266C10.3108 18.5186 10.1466 18.3502 10.0447 18.145C9.94274 17.9398 9.90816 17.7081 9.94578 17.4824C9.9834 17.2568 10.0913 17.0484 10.2544 16.8867C10.4175 16.7249 10.6276 16.6179 10.8552 16.5806C11.0828 16.5432 11.3164 16.5775 11.5233 16.6786C11.7302 16.7797 11.9 16.9425 12.0089 17.1442C12.1178 17.3459 12.1602 17.5763 12.1303 17.8031C12.0987 18.0425 11.9883 18.2648 11.8162 18.4355C11.6441 18.6062 11.4199 18.7157 11.1785 18.747ZM11.1785 13.2711C10.9498 13.3007 10.7175 13.2586 10.5141 13.1507C10.3108 13.0427 10.1466 12.8743 10.0447 12.6691C9.94274 12.4639 9.90816 12.2322 9.94578 12.0065C9.9834 11.7808 10.0913 11.5725 10.2544 11.4107C10.4175 11.249 10.6276 11.1419 10.8552 11.1046C11.0828 11.0673 11.3164 11.1016 11.5233 11.2027C11.7302 11.3038 11.9 11.4666 12.0089 11.6683C12.1178 11.8699 12.1602 12.1003 12.1303 12.3272C12.0987 12.5665 11.9883 12.7889 11.8162 12.9596C11.6441 13.1303 11.4199 13.2398 11.1785 13.2711ZM11.1785 7.79514C10.9498 7.82481 10.7175 7.7827 10.5141 7.67474C10.3108 7.56678 10.1466 7.39838 10.0447 7.19317C9.94274 6.98797 9.90816 6.75626 9.94578 6.53057C9.9834 6.30488 10.0913 6.09654 10.2544 5.93479C10.4175 5.77304 10.6276 5.66599 10.8552 5.62868C11.0828 5.59137 11.3164 5.62567 11.5233 5.72675C11.7302 5.82784 11.9 5.99064 12.0089 6.19232C12.1178 6.39399 12.1602 6.62441 12.1303 6.85123C12.0987 7.0906 11.9883 7.31291 11.8162 7.48362C11.6441 7.65432 11.4199 7.76384 11.1785 7.79514ZM16.7001 29.6989C16.4714 29.7285 16.239 29.6864 16.0357 29.5785C15.8323 29.4705 15.6682 29.3021 15.5662 29.0969C15.4643 28.8917 15.4297 28.66 15.4673 28.4343C15.505 28.2086 15.6129 28.0003 15.776 27.8385C15.9391 27.6768 16.1492 27.5697 16.3768 27.5324C16.6043 27.4951 16.838 27.5294 17.0449 27.6305C17.2518 27.7316 17.4216 27.8944 17.5305 28.0961C17.6393 28.2977 17.6818 28.5281 17.6519 28.755C17.6203 28.9943 17.5099 29.2167 17.3377 29.3874C17.1656 29.5581 16.9414 29.6676 16.7001 29.6989ZM16.7001 24.2229C16.4714 24.2526 16.239 24.2105 16.0357 24.1025C15.8323 23.9946 15.6682 23.8262 15.5662 23.621C15.4643 23.4158 15.4297 23.1841 15.4673 22.9584C15.505 22.7327 15.6129 22.5243 15.776 22.3626C15.9391 22.2008 16.1492 22.0938 16.3768 22.0565C16.6043 22.0192 16.838 22.0535 17.0449 22.1546C17.2518 22.2556 17.4216 22.4184 17.5305 22.6201C17.6393 22.8218 17.6818 23.0522 17.6519 23.279C17.6203 23.5184 17.5099 23.7407 17.3377 23.9114C17.1656 24.0821 16.9414 24.1916 16.7001 24.2229ZM16.7001 18.747C16.4714 18.7767 16.239 18.7346 16.0357 18.6266C15.8323 18.5186 15.6682 18.3502 15.5662 18.145C15.4643 17.9398 15.4297 17.7081 15.4673 17.4824C15.505 17.2568 15.6129 17.0484 15.776 16.8867C15.9391 16.7249 16.1492 16.6179 16.3768 16.5806C16.6043 16.5432 16.838 16.5775 17.0449 16.6786C17.2518 16.7797 17.4216 16.9425 17.5305 17.1442C17.6393 17.3459 17.6818 17.5763 17.6519 17.8031C17.6203 18.0425 17.5099 18.2648 17.3377 18.4355C17.1656 18.6062 16.9414 18.7157 16.7001 18.747Z" fill="white"/>
<path d="M17.1648 12.7857C17.5955 12.355 17.5937 11.655 17.1609 11.2222C16.7281 10.7893 16.0281 10.7876 15.5974 11.2183C15.1667 11.6489 15.1685 12.3489 15.6013 12.7817C16.0342 13.2146 16.7341 13.2163 17.1648 12.7857Z" fill="white"/>
<path d="M16.489 7.79517C16.2622 7.82484 16.0318 7.78273 15.8301 7.67477C15.6284 7.56681 15.4656 7.3984 15.3645 7.19319C15.2634 6.98799 15.2291 6.75628 15.2664 6.53058C15.3037 6.30489 15.4108 6.09655 15.5726 5.93479C15.7343 5.77304 15.9427 5.66599 16.1684 5.62868C16.394 5.59137 16.6258 5.62567 16.831 5.72675C17.0362 5.82784 17.2046 5.99065 17.3126 6.19232C17.4205 6.394 17.4626 6.62442 17.433 6.85124C17.4017 7.09062 17.2921 7.31294 17.1214 7.48364C16.9507 7.65435 16.7284 7.76387 16.489 7.79517ZM26.2036 27.5177C25.987 27.5177 25.7752 27.582 25.5951 27.7023C25.415 27.8226 25.2747 27.9937 25.1918 28.1938C25.1089 28.3939 25.0872 28.6141 25.1294 28.8266C25.1717 29.039 25.276 29.2342 25.4292 29.3874C25.5823 29.5405 25.7775 29.6448 25.9899 29.6871C26.2024 29.7293 26.4226 29.7077 26.6227 29.6248C26.8229 29.5419 26.9939 29.4015 27.1143 29.2214C27.2346 29.0413 27.2988 28.8295 27.2988 28.6129C27.2988 28.3225 27.1834 28.0439 26.978 27.8385C26.7727 27.6331 26.4941 27.5177 26.2036 27.5177ZM26.2036 22.0417C25.987 22.0417 25.7752 22.1059 25.5951 22.2263C25.415 22.3466 25.2747 22.5177 25.1918 22.7178C25.1089 22.9179 25.0872 23.1381 25.1294 23.3506C25.1717 23.563 25.276 23.7582 25.4292 23.9113C25.5823 24.0645 25.7775 24.1688 25.9899 24.2111C26.2024 24.2533 26.4226 24.2316 26.6227 24.1487C26.8229 24.0659 26.9939 23.9255 27.1143 23.7454C27.2346 23.5653 27.2988 23.3535 27.2988 23.1369C27.2988 22.8464 27.1834 22.5679 26.978 22.3625C26.7727 22.1571 26.4941 22.0417 26.2036 22.0417ZM26.2036 16.5657C25.987 16.5657 25.7752 16.6299 25.5951 16.7503C25.415 16.8706 25.2747 17.0417 25.1918 17.2418C25.1089 17.4419 25.0872 17.6621 25.1294 17.8746C25.1717 18.087 25.276 18.2822 25.4292 18.4353C25.5823 18.5885 25.7775 18.6928 25.9899 18.7351C26.2024 18.7773 26.4226 18.7556 26.6227 18.6727C26.8229 18.5898 26.9939 18.4495 27.1143 18.2694C27.2346 18.0893 27.2988 17.8775 27.2988 17.6609C27.2988 17.3704 27.1834 17.0919 26.978 16.8865C26.7727 16.6811 26.4941 16.5657 26.2036 16.5657ZM21.8227 27.5177C21.6061 27.5177 21.3944 27.582 21.2143 27.7023C21.0342 27.8226 20.8938 27.9937 20.8109 28.1938C20.728 28.3939 20.7063 28.6141 20.7486 28.8266C20.7908 29.039 20.8951 29.2342 21.0483 29.3874C21.2015 29.5405 21.3966 29.6448 21.6091 29.6871C21.8215 29.7293 22.0417 29.7077 22.2419 29.6248C22.442 29.5419 22.613 29.4015 22.7334 29.2214C22.8537 29.0413 22.918 28.8295 22.918 28.6129C22.918 28.3225 22.8026 28.0439 22.5972 27.8385C22.3918 27.6331 22.1132 27.5177 21.8227 27.5177ZM21.8227 22.0417C21.6061 22.0417 21.3944 22.1059 21.2143 22.2263C21.0342 22.3466 20.8938 22.5177 20.8109 22.7178C20.728 22.9179 20.7063 23.1381 20.7486 23.3506C20.7908 23.563 20.8951 23.7582 21.0483 23.9113C21.2015 24.0645 21.3966 24.1688 21.6091 24.2111C21.8215 24.2533 22.0417 24.2316 22.2419 24.1487C22.442 24.0659 22.613 23.9255 22.7334 23.7454C22.8537 23.5653 22.918 23.3535 22.918 23.1369C22.918 22.8464 22.8026 22.5679 22.5972 22.3625C22.3918 22.1571 22.1132 22.0417 21.8227 22.0417ZM21.8227 16.5657C21.6061 16.5657 21.3944 16.6299 21.2143 16.7503C21.0342 16.8706 20.8938 17.0417 20.8109 17.2418C20.728 17.4419 20.7063 17.6621 20.7486 17.8746C20.7908 18.087 20.8951 18.2822 21.0483 18.4353C21.2015 18.5885 21.3966 18.6928 21.6091 18.7351C21.8215 18.7773 22.0417 18.7556 22.2419 18.6727C22.442 18.5898 22.613 18.4495 22.7334 18.2694C22.8537 18.0893 22.918 17.8775 22.918 17.6609C22.918 17.3704 22.8026 17.0919 22.5972 16.8865C22.3918 16.6811 22.1132 16.5657 21.8227 16.5657Z" fill="white"/>
</svg>
