<svg width="33" height="35" viewBox="0 0 33 35" fill="none" xmlns="http://www.w3.org/2000/svg">
<path d="M10.8963 28.3314V32.72M4.22407 2H17.5685C18.1584 2 18.7241 2.23118 19.1412 2.64269C19.5583 3.0542 19.7926 3.61232 19.7926 4.19429V32.4457C19.7926 32.5185 19.7633 32.5882 19.7112 32.6397C19.659 32.6911 19.5883 32.72 19.5146 32.72H2V4.19429C2 3.61232 2.23432 3.0542 2.65142 2.64269C3.06851 2.23118 3.63421 2 4.22407 2ZM20.9046 12.9714H28.6889C29.2787 12.9714 29.8444 13.2026 30.2615 13.6141C30.6786 14.0256 30.9129 14.5838 30.9129 15.1657V32.72H19.7926V14.0686C19.7926 13.7776 19.9097 13.4985 20.1183 13.2928C20.3268 13.087 20.6097 12.9714 20.9046 12.9714Z" stroke="#0062FF" stroke-width="3" stroke-linecap="round" stroke-linejoin="round"/>
<path d="M5.65695 29.699C5.42824 29.7287 5.1959 29.6866 4.99255 29.5786C4.78919 29.4706 4.62503 29.3022 4.5231 29.097C4.42117 28.8918 4.38659 28.6601 4.42421 28.4344C4.46183 28.2087 4.56977 28.0004 4.73287 27.8387C4.89597 27.6769 5.10605 27.5699 5.33362 27.5325C5.56119 27.4952 5.79483 27.5295 6.00174 27.6306C6.20866 27.7317 6.37846 27.8945 6.48732 28.0962C6.59618 28.2979 6.63864 28.5283 6.60873 28.7551C6.57716 28.9945 6.46673 29.2168 6.29461 29.3875C6.12248 29.5582 5.89831 29.6677 5.65695 29.699ZM5.65695 24.2231C5.42824 24.2527 5.1959 24.2106 4.99255 24.1027C4.78919 23.9947 4.62503 23.8263 4.5231 23.6211C4.42117 23.4159 4.38659 23.1842 4.42421 22.9585C4.46183 22.7328 4.56977 22.5245 4.73287 22.3627C4.89597 22.201 5.10605 22.0939 5.33362 22.0566C5.56119 22.0193 5.79483 22.0536 6.00174 22.1547C6.20866 22.2558 6.37846 22.4186 6.48732 22.6202C6.59618 22.8219 6.63864 23.0523 6.60873 23.2792C6.57716 23.5185 6.46673 23.7408 6.29461 23.9115C6.12248 24.0822 5.89831 24.1918 5.65695 24.2231ZM5.65695 18.7471C5.42824 18.7768 5.1959 18.7347 4.99255 18.6267C4.78919 18.5188 4.62503 18.3504 4.5231 18.1452C4.42117 17.94 4.38659 17.7083 4.42421 17.4826C4.46183 17.2569 4.56977 17.0485 4.73287 16.8868C4.89597 16.725 5.10605 16.618 5.33362 16.5807C5.56119 16.5434 5.79483 16.5777 6.00174 16.6787C6.20866 16.7798 6.37846 16.9426 6.48732 17.1443C6.59618 17.346 6.63864 17.5764 6.60873 17.8032C6.57716 18.0426 6.46673 18.2649 6.29461 18.4356C6.12248 18.6063 5.89831 18.7158 5.65695 18.7471ZM5.65695 13.2712C5.42824 13.3009 5.1959 13.2588 4.99255 13.1508C4.78919 13.0428 4.62503 12.8744 4.5231 12.6692C4.42117 12.464 4.38659 12.2323 4.42421 12.0066C4.46183 11.7809 4.56977 11.5726 4.73287 11.4108C4.89597 11.2491 5.10605 11.142 5.33362 11.1047C5.56119 11.0674 5.79483 11.1017 6.00174 11.2028C6.20866 11.3039 6.37846 11.4667 6.48732 11.6684C6.59618 11.87 6.63864 12.1005 6.60873 12.3273C6.57716 12.5667 6.46673 12.789 6.29461 12.9597C6.12248 13.1304 5.89831 13.2399 5.65695 13.2712ZM5.65695 7.79526C5.42824 7.82493 5.1959 7.78282 4.99255 7.67486C4.78919 7.5669 4.62503 7.3985 4.5231 7.19329C4.42117 6.98809 4.38659 6.75638 4.42421 6.53069C4.46183 6.305 4.56977 6.09666 4.73287 5.93491C4.89597 5.77316 5.10605 5.66611 5.33362 5.6288C5.56119 5.59149 5.79483 5.62579 6.00174 5.72687C6.20866 5.82796 6.37846 5.99077 6.48732 6.19244C6.59618 6.39411 6.63864 6.62453 6.60873 6.85135C6.57716 7.09072 6.46673 7.31304 6.29461 7.48374C6.12248 7.65444 5.89831 7.76396 5.65695 7.79526ZM11.1785 24.2231C10.9498 24.2527 10.7175 24.2106 10.5141 24.1027C10.3108 23.9947 10.1466 23.8263 10.0447 23.6211C9.94274 23.4159 9.90816 23.1842 9.94578 22.9585C9.9834 22.7328 10.0913 22.5245 10.2544 22.3627C10.4175 22.201 10.6276 22.0939 10.8552 22.0566C11.0828 22.0193 11.3164 22.0536 11.5233 22.1547C11.7302 22.2558 11.9 22.4186 12.0089 22.6202C12.1178 22.8219 12.1602 23.0523 12.1303 23.2792C12.0987 23.5185 11.9883 23.7408 11.8162 23.9115C11.6441 24.0822 11.4199 24.1918 11.1785 24.2231ZM11.1785 18.7471C10.9498 18.7768 10.7175 18.7347 10.5141 18.6267C10.3108 18.5188 10.1466 18.3504 10.0447 18.1452C9.94274 17.94 9.90816 17.7083 9.94578 17.4826C9.9834 17.2569 10.0913 17.0485 10.2544 16.8868C10.4175 16.725 10.6276 16.618 10.8552 16.5807C11.0828 16.5434 11.3164 16.5777 11.5233 16.6787C11.7302 16.7798 11.9 16.9426 12.0089 17.1443C12.1178 17.346 12.1602 17.5764 12.1303 17.8032C12.0987 18.0426 11.9883 18.2649 11.8162 18.4356C11.6441 18.6063 11.4199 18.7158 11.1785 18.7471ZM11.1785 13.2712C10.9498 13.3009 10.7175 13.2588 10.5141 13.1508C10.3108 13.0428 10.1466 12.8744 10.0447 12.6692C9.94274 12.464 9.90816 12.2323 9.94578 12.0066C9.9834 11.7809 10.0913 11.5726 10.2544 11.4108C10.4175 11.2491 10.6276 11.142 10.8552 11.1047C11.0828 11.0674 11.3164 11.1017 11.5233 11.2028C11.7302 11.3039 11.9 11.4667 12.0089 11.6684C12.1178 11.87 12.1602 12.1005 12.1303 12.3273C12.0987 12.5667 11.9883 12.789 11.8162 12.9597C11.6441 13.1304 11.4199 13.2399 11.1785 13.2712ZM11.1785 7.79526C10.9498 7.82493 10.7175 7.78282 10.5141 7.67486C10.3108 7.5669 10.1466 7.3985 10.0447 7.19329C9.94274 6.98809 9.90816 6.75638 9.94578 6.53069C9.9834 6.305 10.0913 6.09666 10.2544 5.93491C10.4175 5.77316 10.6276 5.66611 10.8552 5.6288C11.0828 5.59149 11.3164 5.62579 11.5233 5.72687C11.7302 5.82796 11.9 5.99077 12.0089 6.19244C12.1178 6.39411 12.1602 6.62453 12.1303 6.85135C12.0987 7.09072 11.9883 7.31304 11.8162 7.48374C11.6441 7.65444 11.4199 7.76396 11.1785 7.79526ZM16.7001 29.699C16.4714 29.7287 16.239 29.6866 16.0357 29.5786C15.8323 29.4706 15.6682 29.3022 15.5662 29.097C15.4643 28.8918 15.4297 28.6601 15.4673 28.4344C15.505 28.2087 15.6129 28.0004 15.776 27.8387C15.9391 27.6769 16.1492 27.5699 16.3768 27.5325C16.6043 27.4952 16.838 27.5295 17.0449 27.6306C17.2518 27.7317 17.4216 27.8945 17.5305 28.0962C17.6393 28.2979 17.6818 28.5283 17.6519 28.7551C17.6203 28.9945 17.5099 29.2168 17.3377 29.3875C17.1656 29.5582 16.9414 29.6677 16.7001 29.699ZM16.7001 24.2231C16.4714 24.2527 16.239 24.2106 16.0357 24.1027C15.8323 23.9947 15.6682 23.8263 15.5662 23.6211C15.4643 23.4159 15.4297 23.1842 15.4673 22.9585C15.505 22.7328 15.6129 22.5245 15.776 22.3627C15.9391 22.201 16.1492 22.0939 16.3768 22.0566C16.6043 22.0193 16.838 22.0536 17.0449 22.1547C17.2518 22.2558 17.4216 22.4186 17.5305 22.6202C17.6393 22.8219 17.6818 23.0523 17.6519 23.2792C17.6203 23.5185 17.5099 23.7408 17.3377 23.9115C17.1656 24.0822 16.9414 24.1918 16.7001 24.2231ZM16.7001 18.7471C16.4714 18.7768 16.239 18.7347 16.0357 18.6267C15.8323 18.5188 15.6682 18.3504 15.5662 18.1452C15.4643 17.94 15.4297 17.7083 15.4673 17.4826C15.505 17.2569 15.6129 17.0485 15.776 16.8868C15.9391 16.725 16.1492 16.618 16.3768 16.5807C16.6043 16.5434 16.838 16.5777 17.0449 16.6787C17.2518 16.7798 17.4216 16.9426 17.5305 17.1443C17.6393 17.346 17.6818 17.5764 17.6519 17.8032C17.6203 18.0426 17.5099 18.2649 17.3377 18.4356C17.1656 18.6063 16.9414 18.7158 16.7001 18.7471Z" fill="#0062FF"/>
<path d="M17.1648 12.7857C17.5955 12.355 17.5937 11.655 17.1609 11.2222C16.7281 10.7893 16.0281 10.7876 15.5974 11.2183C15.1667 11.6489 15.1685 12.3489 15.6013 12.7817C16.0342 13.2146 16.7341 13.2163 17.1648 12.7857Z" fill="#0062FF"/>
<path d="M16.489 7.7953C16.2622 7.82496 16.0318 7.78286 15.8301 7.67489C15.6284 7.56693 15.4656 7.39852 15.3645 7.19332C15.2634 6.98811 15.2291 6.7564 15.2664 6.53071C15.3037 6.30501 15.4108 6.09667 15.5726 5.93491C15.7343 5.77316 15.9427 5.66611 16.1684 5.6288C16.394 5.59149 16.6258 5.62579 16.831 5.72688C17.0362 5.82796 17.2046 5.99077 17.3126 6.19245C17.4205 6.39412 17.4626 6.62454 17.433 6.85137C17.4017 7.09074 17.2921 7.31306 17.1214 7.48377C16.9507 7.65447 16.7284 7.76399 16.489 7.7953ZM26.2036 27.5178C25.987 27.5178 25.7752 27.5821 25.5951 27.7024C25.415 27.8228 25.2747 27.9938 25.1918 28.1939C25.1089 28.3941 25.0872 28.6143 25.1294 28.8267C25.1717 29.0392 25.276 29.2343 25.4292 29.3875C25.5823 29.5406 25.7775 29.645 25.9899 29.6872C26.2024 29.7295 26.4226 29.7078 26.6227 29.6249C26.8229 29.542 26.9939 29.4016 27.1143 29.2215C27.2346 29.0414 27.2988 28.8297 27.2988 28.6131C27.2988 28.3226 27.1834 28.044 26.978 27.8386C26.7727 27.6332 26.4941 27.5178 26.2036 27.5178ZM26.2036 22.0418C25.987 22.0418 25.7752 22.1061 25.5951 22.2264C25.415 22.3467 25.2747 22.5178 25.1918 22.7179C25.1089 22.918 25.0872 23.1383 25.1294 23.3507C25.1717 23.5631 25.276 23.7583 25.4292 23.9115C25.5823 24.0646 25.7775 24.1689 25.9899 24.2112C26.2024 24.2535 26.4226 24.2318 26.6227 24.1489C26.8229 24.066 26.9939 23.9256 27.1143 23.7455C27.2346 23.5654 27.2988 23.3536 27.2988 23.137C27.2988 22.8466 27.1834 22.568 26.978 22.3626C26.7727 22.1572 26.4941 22.0418 26.2036 22.0418ZM26.2036 16.5658C25.987 16.5658 25.7752 16.63 25.5951 16.7504C25.415 16.8707 25.2747 17.0418 25.1918 17.2419C25.1089 17.442 25.0872 17.6622 25.1294 17.8747C25.1717 18.0871 25.276 18.2823 25.4292 18.4354C25.5823 18.5886 25.7775 18.6929 25.9899 18.7352C26.2024 18.7774 26.4226 18.7557 26.6227 18.6729C26.8229 18.59 26.9939 18.4496 27.1143 18.2695C27.2346 18.0894 27.2988 17.8776 27.2988 17.661C27.2988 17.3706 27.1834 17.092 26.978 16.8866C26.7727 16.6812 26.4941 16.5658 26.2036 16.5658ZM21.8227 27.5178C21.6061 27.5178 21.3944 27.5821 21.2143 27.7024C21.0342 27.8228 20.8938 27.9938 20.8109 28.1939C20.728 28.3941 20.7063 28.6143 20.7486 28.8267C20.7908 29.0392 20.8951 29.2343 21.0483 29.3875C21.2015 29.5406 21.3966 29.645 21.6091 29.6872C21.8215 29.7295 22.0417 29.7078 22.2419 29.6249C22.442 29.542 22.613 29.4016 22.7334 29.2215C22.8537 29.0414 22.918 28.8297 22.918 28.6131C22.918 28.3226 22.8026 28.044 22.5972 27.8386C22.3918 27.6332 22.1132 27.5178 21.8227 27.5178ZM21.8227 22.0418C21.6061 22.0418 21.3944 22.1061 21.2143 22.2264C21.0342 22.3467 20.8938 22.5178 20.8109 22.7179C20.728 22.918 20.7063 23.1383 20.7486 23.3507C20.7908 23.5631 20.8951 23.7583 21.0483 23.9115C21.2015 24.0646 21.3966 24.1689 21.6091 24.2112C21.8215 24.2535 22.0417 24.2318 22.2419 24.1489C22.442 24.066 22.613 23.9256 22.7334 23.7455C22.8537 23.5654 22.918 23.3536 22.918 23.137C22.918 22.8466 22.8026 22.568 22.5972 22.3626C22.3918 22.1572 22.1132 22.0418 21.8227 22.0418ZM21.8227 16.5658C21.6061 16.5658 21.3944 16.63 21.2143 16.7504C21.0342 16.8707 20.8938 17.0418 20.8109 17.2419C20.728 17.442 20.7063 17.6622 20.7486 17.8747C20.7908 18.0871 20.8951 18.2823 21.0483 18.4354C21.2015 18.5886 21.3966 18.6929 21.6091 18.7352C21.8215 18.7774 22.0417 18.7557 22.2419 18.6729C22.442 18.59 22.613 18.4496 22.7334 18.2695C22.8537 18.0894 22.918 17.8776 22.918 17.661C22.918 17.3706 22.8026 17.092 22.5972 16.8866C22.3918 16.6812 22.1132 16.5658 21.8227 16.5658Z" fill="#0062FF"/>
</svg>
